/* XPM */
static char * bullet_xpm[] = {
"20 20 3 1",
" 	c None",
".	c #212121",
"+	c #B3486B",
".................+++",
".................+++",
".................+++",
".................+++",
".................+++",
".................+++",
".................+++",
".................+++",
".................+++",
".................+++",
".................+++",
".................+++",
".................+++",
".................+++",
".................+++",
".................+++",
".................+++",
".................+++",
".................+++",
".................+++"};
