/* XPM */
static char * close_xpm[] = {
"1 16 3 1",
" 	c None",
".	c #E57373",
"+	c #212121",
".",
".",
".",
".",
".",
".",
".",
".",
"+",
"+",
"+",
"+",
"+",
"+",
"+",
"+"};
