/* XPM */
static char * iconify_unf_xpm[] = {
"16 16 3 1",
" 	c None",
".	c #AF9ECD",
"+	c #212121",
"................",
"................",
"................",
"................",
"................",
"................",
"................",
"................",
"++++++++++++++++",
"++++++++++++++++",
"++++++++++++++++",
"++++++++++++++++",
"++++++++++++++++",
"++++++++++++++++",
"++++++++++++++++",
"++++++++++++++++"};
