/* XPM */
static char * iconify_xpm[] = {
"16 16 3 1",
" 	c None",
".	c #9575CD",
"+	c #212121",
"................",
"................",
"................",
"................",
"................",
"................",
"................",
"................",
"++++++++++++++++",
"++++++++++++++++",
"++++++++++++++++",
"++++++++++++++++",
"++++++++++++++++",
"++++++++++++++++",
"++++++++++++++++",
"++++++++++++++++"};
