/* XPM */
static char * maximize_unf_xpm[] = {
"16 16 3 1",
" 	c None",
".	c #F092B2",
"+	c #212121",
"................",
"................",
"................",
"................",
"................",
"................",
"................",
"................",
"++++++++++++++++",
"++++++++++++++++",
"++++++++++++++++",
"++++++++++++++++",
"++++++++++++++++",
"++++++++++++++++",
"++++++++++++++++",
"++++++++++++++++"};
