/* XPM */
static char * sel_xpm[] = {
"20 20 3 1",
" 	c None",
".	c #212121",
"+	c #6E47B3",
"....................",
"....................",
"....................",
"....................",
"....................",
".....++++++++++.....",
".....++++++++++.....",
".....++++++++++.....",
".....++++++++++.....",
".....++++++++++.....",
".....++++++++++.....",
".....++++++++++.....",
".....++++++++++.....",
".....++++++++++.....",
".....++++++++++.....",
"....................",
"....................",
"....................",
"....................",
"...................."};
