/* XPM */
static char * sel_hi_xpm[] = {
"20 20 3 1",
" 	c None",
".	c #212121",
"+	c #AE80FF",
"....................",
"....................",
"....................",
"....................",
"....................",
".....++++++++++.....",
".....++++++++++.....",
".....++++++++++.....",
".....++++++++++.....",
".....++++++++++.....",
".....++++++++++.....",
".....++++++++++.....",
".....++++++++++.....",
".....++++++++++.....",
".....++++++++++.....",
"....................",
"....................",
"....................",
"....................",
"...................."};
