/* XPM */
static char * stick_unf_xpm[] = {
"16 16 3 1",
" 	c None",
".	c #A2A9CB",
"+	c #212121",
"................",
"................",
"................",
"................",
"................",
"................",
"................",
"................",
"++++++++++++++++",
"++++++++++++++++",
"++++++++++++++++",
"++++++++++++++++",
"++++++++++++++++",
"++++++++++++++++",
"++++++++++++++++",
"++++++++++++++++"};
