/* XPM */
static char * stick_xpm[] = {
"16 16 3 1",
" 	c None",
".	c #7986CB",
"+	c #212121",
"................",
"................",
"................",
"................",
"................",
"................",
"................",
"................",
"++++++++++++++++",
"++++++++++++++++",
"++++++++++++++++",
"++++++++++++++++",
"++++++++++++++++",
"++++++++++++++++",
"++++++++++++++++",
"++++++++++++++++"};
