/* XPM */
static char * stick_p_xpm[] = {
"16 16 3 1",
" 	c None",
".	c #212121",
"+	c #7986CB",
"................",
"................",
"................",
"................",
"++++++++++++++++",
"++++++++++++++++",
"++++++++++++++++",
"++++++++++++++++",
"++++++++++++++++",
"++++++++++++++++",
"++++++++++++++++",
"++++++++++++++++",
"................",
"................",
"................",
"................"};
