/* XPM */
static char * stuck_unf_xpm[] = {
"16 16 3 1",
" 	c None",
".	c #212121",
"+	c #A2A9CB",
"................",
"................",
"................",
"................",
"................",
"................",
"................",
"................",
"++++++++++++++++",
"++++++++++++++++",
"++++++++++++++++",
"++++++++++++++++",
"++++++++++++++++",
"++++++++++++++++",
"++++++++++++++++",
"++++++++++++++++"};
