/* XPM */
static char * taskunfocus_xpm[] = {
"1 32 3 1",
" 	c None",
".	c #396280",
"+	c #212121",
".",
".",
".",
"+",
"+",
"+",
"+",
"+",
"+",
"+",
"+",
"+",
"+",
"+",
"+",
"+",
"+",
"+",
"+",
"+",
"+",
"+",
"+",
"+",
"+",
"+",
"+",
"+",
"+",
"+",
"+",
"+"};
