/* XPM */
static char * tbutton_p_xpm[] = {
"1 32 3 1",
" 	c None",
".	c #212121",
"+	c #7986CB",
".",
".",
".",
"+",
"+",
"+",
".",
".",
".",
".",
".",
".",
".",
".",
".",
".",
".",
".",
".",
".",
".",
".",
".",
".",
".",
".",
".",
".",
".",
".",
".",
"."};
