/* XPM */
static char * unshade_unf_xpm[] = {
"16 16 3 1",
" 	c None",
".	c #212121",
"+	c #99B5CC",
"................",
"................",
"................",
"................",
"................",
"................",
"................",
"................",
"++++++++++++++++",
"++++++++++++++++",
"++++++++++++++++",
"++++++++++++++++",
"++++++++++++++++",
"++++++++++++++++",
"++++++++++++++++",
"++++++++++++++++"};
